<?xml version="1.0" encoding="UTF-8"?>
<svg version="1.1" xmlns="http://www.w3.org/2000/svg" width="600" height="600">
<path d="M0 0 C198 0 396 0 600 0 C600 198 600 396 600 600 C402 600 204 600 0 600 C0 402 0 204 0 0 Z " fill="#000000" transform="translate(0,0)"/>
<path d="M0 0 C11.13909883 8.51728233 16.497881 19.74197809 20 33 C20.20367187 33.76054687 20.40734375 34.52109375 20.6171875 35.3046875 C21.22301305 39.57019395 21.14351706 43.82287021 21.125 48.125 C21.12886719 49.03121094 21.13273437 49.93742187 21.13671875 50.87109375 C21.13542969 51.74121094 21.13414062 52.61132812 21.1328125 53.5078125 C21.13168457 54.29816895 21.13055664 55.08852539 21.12939453 55.90283203 C21 58 21 58 20 61 C-5.41 61 -30.82 61 -57 61 C-53.86555701 75.3222121 -53.86555701 75.3222121 -44.3125 84.8125 C-30.71632534 92.37728891 -15.00589331 91.12830726 -0.3671875 87.75390625 C3.07644039 86.98288516 6.50233067 86.45834598 10 86 C12.60900601 92.64558134 13.6143354 98.88515313 14 106 C-6.24993781 114.61606425 -31.95803713 116.7983614 -52.61328125 108.55859375 C-66.93677994 102.16174719 -76.48289055 92.16889925 -82.140625 77.65234375 C-87.51525196 61.06429054 -87.61183423 40.86635632 -80 25 C-79.54238281 24.00226563 -79.08476562 23.00453125 -78.61328125 21.9765625 C-71.5250238 7.8000476 -60.67566602 -0.64914599 -45.98046875 -6.0546875 C-30.82192712 -10.86250804 -13.42091801 -8.42708805 0 0 Z " fill="#FBFBFB" transform="translate(252,273)"/>
<path d="M0 0 C27.2264558 -2.33226097 27.2264558 -2.33226097 34.28759766 1.11767578 C37.72699542 4.21846374 39.27800441 8.24613773 40.91845703 12.49462891 C43.1026515 17.55426856 46.23730706 22.13142998 49.125 26.8125 C50.26168297 28.70943298 51.38999313 30.61142152 52.5078125 32.51953125 C52.98879395 33.33526611 53.46977539 34.15100098 53.96533203 34.99145508 C55 37 55 37 55 39 C55.66 39 56.32 39 57 39 C57.2371875 38.34644531 57.474375 37.69289063 57.71875 37.01953125 C59.74058232 32.25466423 62.27253597 27.78191717 64.88818359 23.31884766 C67.19960965 19.36289095 69.22713203 15.5872013 70.7578125 11.26171875 C72.65951987 6.49603801 74.34747929 2.54993924 79 0 C89.48978887 -1.9940928 100.43676418 -0.9651876 111 0 C108.1997878 5.07702025 105.13315921 9.79573229 101.75 14.5 C100.69057524 15.98638722 99.63203172 17.4734028 98.57421875 18.9609375 C98.00493652 19.76112305 97.4356543 20.56130859 96.84912109 21.38574219 C92.69976404 27.2520368 88.61630422 33.16461458 84.52050781 39.06835938 C83.8756543 39.99712891 83.23080078 40.92589844 82.56640625 41.8828125 C81.6539917 43.20587402 81.6539917 43.20587402 80.72314453 44.55566406 C79.64100825 46.09070918 78.53094056 47.60681822 77.38232422 49.09277344 C74.73957407 52.1697483 74.73957407 52.1697483 74.24389648 55.97094727 C75.01744535 58.04681572 75.91159262 59.68880598 77.1328125 61.53515625 C77.59856689 62.24559082 78.06432129 62.95602539 78.54418945 63.68798828 C79.06585693 64.47157715 79.58752441 65.25516602 80.125 66.0625 C80.6718042 66.89507324 81.2186084 67.72764648 81.78198242 68.58544922 C83.84796392 71.72807672 85.92330738 74.86444733 88 78 C91.57902408 83.4048478 95.15457753 88.81195433 98.72479248 94.22262573 C100.30565 96.61463521 101.89218968 99.00280847 103.47900391 101.39086914 C104.46150368 102.87760792 105.44377307 104.36449898 106.42578125 105.8515625 C106.88768356 106.54343155 107.34958588 107.2353006 107.82548523 107.94813538 C111 112.77261791 111 112.77261791 111 115 C84.15997811 119.32175881 84.15997811 119.32175881 76.34594727 113.83953857 C69.80104304 107.60569266 66.06180493 98.70811452 62.55712891 90.52490234 C60.65437415 86.21760019 58.41090632 82.16827499 56.07299805 78.08520508 C55 76 55 76 55 74 C54.34 74 53.68 74 53 74 C52.72760498 74.88284668 52.45520996 75.76569336 52.17456055 76.67529297 C51.08478399 79.76001072 49.82752501 82.36284834 48.20703125 85.1953125 C47.65853516 86.15953125 47.11003906 87.12375 46.54492188 88.1171875 C45.97322266 89.10976563 45.40152344 90.10234375 44.8125 91.125 C44.26013672 92.094375 43.70777344 93.06375 43.13867188 94.0625 C42.01134396 96.03696051 40.86479001 98.00055924 39.69995117 99.953125 C37.924979 102.99741391 37.924979 102.99741391 36.59106445 106.390625 C35.02380759 109.86782364 33.72737369 112.32221492 31 115 C25.44823744 116.47563521 20.24624539 116.1444203 14.5625 115.75 C13.05294649 115.68974097 11.54316203 115.63499931 10.03320312 115.5859375 C6.35063551 115.45431492 2.67679411 115.24772388 -1 115 C0.37086509 111.2160048 2.108019 108.12831843 4.38671875 104.81640625 C5.41309448 103.3166626 5.41309448 103.3166626 6.46020508 101.78662109 C7.1952124 100.72266113 7.93021973 99.65870117 8.6875 98.5625 C9.44932048 97.4516833 10.21062596 96.34051322 10.97143555 95.22900391 C12.92564179 92.37590746 14.8848392 89.526281 16.84558105 86.67767334 C19.35527397 83.03043167 21.85986667 79.37971082 24.3605957 75.72631836 C25.62975834 73.87234082 26.9015883 72.02018543 28.17651367 70.17016602 C31.34316185 65.54858332 34.30431931 60.91212926 37 56 C36.62415771 55.44876465 36.24831543 54.8975293 35.86108398 54.32958984 C34.71662401 52.65104855 33.57217527 50.97249961 32.42773438 49.29394531 C31.08666913 47.32709349 29.7455216 45.36029776 28.40429688 43.39355469 C24.90434828 38.26105784 21.40565957 33.12771305 17.91015625 27.9921875 C17.254104 27.02877441 16.59805176 26.06536133 15.92211914 25.07275391 C14.67729835 23.2446556 13.43296352 21.41622625 12.18920898 19.58740234 C11.61114502 18.73871582 11.03308105 17.8900293 10.4375 17.015625 C9.87804687 16.19384766 9.31859375 15.37207031 8.7421875 14.52539062 C6.30374771 10.9907464 3.79864917 7.50406295 1.28515625 4.02246094 C0 2 0 2 0 0 Z " fill="#FCFCFC" transform="translate(420,268)"/>
<path d="M0 0 C0 9.9 0 19.8 0 30 C9.24 30 18.48 30 28 30 C28 37.26 28 44.52 28 52 C18.76 52 9.52 52 0 52 C0.06780727 59.25303926 0.13847157 66.50513239 0.2355423 73.75769043 C0.2799727 77.13596272 0.31945318 80.51411759 0.34643555 83.89257812 C0.38017264 87.7802397 0.43250019 91.66728714 0.48828125 95.5546875 C0.49467117 96.74988007 0.5010611 97.94507263 0.50764465 99.17648315 C0.64477819 107.07734242 0.96512236 115.23877873 6.10546875 121.609375 C10.23305629 123.59239951 13.80511546 123.43356048 18.3125 123.25 C21.179375 123.1675 24.04625 123.085 27 123 C27 130.26 27 137.52 27 145 C16.13397225 149.3464111 1.27329488 150.21354013 -9.75 145.8125 C-18.64506176 141.4079108 -23.64945014 135.91888525 -26.8717804 126.43389893 C-29.13053768 118.1089829 -29.39270389 110.19107353 -29.29296875 101.609375 C-29.28735746 100.16921435 -29.28309464 98.72904788 -29.28010559 97.28887939 C-29.26877711 93.54058372 -29.2394172 89.79264968 -29.20599365 86.04449463 C-29.17503028 82.2028899 -29.16154476 78.36122541 -29.14648438 74.51953125 C-29.11453266 67.01283869 -29.06186689 59.50651655 -29 52 C-34.28 52 -39.56 52 -45 52 C-45 44.74 -45 37.48 -45 30 C-39.72 30 -34.44 30 -29 30 C-29 22.74 -29 15.48 -29 8 C-27.30230469 7.50628906 -25.60460937 7.01257813 -23.85546875 6.50390625 C-21.63280365 5.85680122 -19.41014789 5.20966414 -17.1875 4.5625 C-16.06794922 4.23701172 -14.94839844 3.91152344 -13.79492188 3.57617188 C-12.18520508 3.10727539 -12.18520508 3.10727539 -10.54296875 2.62890625 C-9.55321045 2.34088135 -8.56345215 2.05285645 -7.54370117 1.75610352 C-1.63577656 0 -1.63577656 0 0 0 Z " fill="#FBFBFB" transform="translate(379,238)"/>
<path d="M0 0 C-0.48701051 7.59064664 -1.99763587 14.67059167 -4 22 C-5.41681634 21.68817931 -6.83344651 21.37551263 -8.25 21.0625 C-9.43335938 20.80146484 -9.43335938 20.80146484 -10.640625 20.53515625 C-12.04445076 20.21673882 -13.44251649 19.86610553 -14.8203125 19.44921875 C-24.63808013 17.4258437 -36.54609206 18.12765524 -45.20703125 23.32421875 C-53.53560454 29.21139208 -57.82989136 36.48967407 -61 46 C-61.827814 58.47149292 -61.40632685 70.91240779 -53 81 C-46.85088931 87.52827837 -38.37722984 91.50057839 -29.40625 92.203125 C-22.74481872 92.31056744 -17.06694686 91.51028985 -10.69140625 89.55859375 C-7.76438457 88.95109868 -5.85921654 89.21643975 -3 90 C-2.49219106 92.20655075 -1.99408635 94.41533605 -1.5 96.625 C-1.2215625 97.85476563 -0.943125 99.08453125 -0.65625 100.3515625 C-0.05908379 103.67152228 0.12409534 106.63908451 0 110 C-18.04695691 117.5797219 -39.65566106 118.91658365 -58.125 111.875 C-73.47113772 104.96214272 -82.61461705 94.29521962 -89 79 C-94.8513026 62.6452991 -93.55969133 43.47522112 -86.3125 27.875 C-78.44171471 13.09798643 -66.29638095 3.0853989 -50.4140625 -2.19140625 C-34.14519891 -6.97851936 -15.68878532 -6.76771132 0 0 Z " fill="#FBFBFB" transform="translate(160,270)"/>
<path d="M0 0 C9.9 0 19.8 0 30 0 C30 55.77 30 111.54 30 169 C20.1 169 10.2 169 0 169 C0 113.23 0 57.46 0 0 Z " fill="#F7F7F7" transform="translate(290,215)"/>
<path d="M0 0 C5.19440099 2.8986244 8.03185705 6.82298824 10.6875 12.0625 C11.0690625 12.7946875 11.450625 13.526875 11.84375 14.28125 C12.6875 17.0625 12.6875 17.0625 12.6875 26.0625 C-3.8125 26.0625 -20.3125 26.0625 -37.3125 26.0625 C-36.22997241 16.31975169 -34.1254041 10.23710667 -26.875 3.625 C-18.68443856 -2.67405924 -9.55331939 -4.15799594 0 0 Z " fill="#030303" transform="translate(232.3125,286.9375)"/>
</svg>
